<svg width="430" height="868" viewBox="0 0 430 868" fill="none" xmlns="http://www.w3.org/2000/svg">
<path d="M0 0H430V868H0V0Z" fill="#F1DEDC" fill-opacity="0.63"/>
<path d="M11.79 44.5078C11.79 44.0928 11.7249 43.7266 11.5947 43.4092C11.4727 43.0837 11.2529 42.7907 10.9355 42.5303C10.6263 42.2699 10.195 42.0216 9.6416 41.7856C9.09635 41.5496 8.40462 41.3096 7.56641 41.0654C6.6875 40.805 5.89404 40.5161 5.18604 40.1987C4.47803 39.8732 3.87174 39.5029 3.36719 39.0879C2.86263 38.6729 2.47607 38.1968 2.20752 37.6597C1.93896 37.1226 1.80469 36.5081 1.80469 35.8164C1.80469 35.1247 1.9471 34.4858 2.23193 33.8999C2.51676 33.314 2.92367 32.8053 3.45264 32.374C3.98975 31.9346 4.62858 31.5928 5.36914 31.3486C6.1097 31.1045 6.93571 30.9824 7.84717 30.9824C9.1818 30.9824 10.313 31.2388 11.2407 31.7515C12.1766 32.256 12.8887 32.9193 13.377 33.7412C13.8652 34.555 14.1094 35.4258 14.1094 36.3535H11.7656C11.7656 35.6862 11.6232 35.0962 11.3384 34.5835C11.0535 34.0627 10.6222 33.6558 10.0444 33.3628C9.46663 33.0617 8.73421 32.9111 7.84717 32.9111C7.00895 32.9111 6.31722 33.0373 5.77197 33.2896C5.22673 33.5418 4.81982 33.8836 4.55127 34.3149C4.29085 34.7463 4.16064 35.2386 4.16064 35.792C4.16064 36.1663 4.23796 36.5081 4.39258 36.8174C4.55534 37.1185 4.80355 37.3993 5.13721 37.6597C5.479 37.9201 5.91032 38.1602 6.43115 38.3799C6.96012 38.5996 7.59082 38.8112 8.32324 39.0146C9.33236 39.2995 10.2031 39.6169 10.9355 39.9668C11.668 40.3167 12.2702 40.7114 12.7422 41.1509C13.2223 41.5822 13.5763 42.0745 13.8042 42.6279C14.0402 43.1732 14.1582 43.7917 14.1582 44.4834C14.1582 45.2077 14.0117 45.8628 13.7188 46.4487C13.4258 47.0347 13.0067 47.5352 12.4614 47.9502C11.9162 48.3652 11.2611 48.6867 10.4961 48.9146C9.73926 49.1343 8.8929 49.2441 7.95703 49.2441C7.13509 49.2441 6.32536 49.1302 5.52783 48.9023C4.73844 48.6745 4.01823 48.3327 3.36719 47.877C2.72428 47.4212 2.20752 46.8597 1.81689 46.1924C1.43441 45.5169 1.24316 44.7357 1.24316 43.8486H3.58691C3.58691 44.459 3.70492 44.9839 3.94092 45.4233C4.17692 45.8547 4.49837 46.2127 4.90527 46.4976C5.32031 46.7824 5.78825 46.994 6.30908 47.1323C6.83805 47.2625 7.38737 47.3276 7.95703 47.3276C8.77897 47.3276 9.47477 47.2137 10.0444 46.9858C10.6141 46.758 11.0454 46.4325 11.3384 46.0093C11.6395 45.5861 11.79 45.0856 11.79 44.5078ZM22.3003 49.2441C21.3807 49.2441 20.5465 49.0895 19.7979 48.7803C19.0573 48.4629 18.4185 48.0194 17.8813 47.4497C17.3524 46.88 16.9455 46.2046 16.6606 45.4233C16.3758 44.6421 16.2334 43.7876 16.2334 42.8599V42.3472C16.2334 41.2729 16.3921 40.3167 16.7095 39.4785C17.0269 38.6322 17.4582 37.916 18.0034 37.3301C18.5487 36.7441 19.1672 36.3006 19.8589 35.9995C20.5506 35.6984 21.2668 35.5479 22.0073 35.5479C22.9513 35.5479 23.7651 35.7106 24.4487 36.0361C25.1405 36.3617 25.7061 36.8174 26.1455 37.4033C26.585 37.9811 26.9105 38.6647 27.1221 39.4541C27.3337 40.2354 27.4395 41.0898 27.4395 42.0176V43.0308H17.5762V41.1875H25.1812V41.0166C25.1486 40.4307 25.0265 39.861 24.8149 39.3076C24.6115 38.7542 24.286 38.2985 23.8384 37.9404C23.3908 37.5824 22.7804 37.4033 22.0073 37.4033C21.4946 37.4033 21.0226 37.5132 20.5913 37.7329C20.16 37.9445 19.7897 38.2619 19.4805 38.6851C19.1712 39.1082 18.9312 39.625 18.7603 40.2354C18.5894 40.8457 18.5039 41.5496 18.5039 42.3472V42.8599C18.5039 43.4865 18.5894 44.0765 18.7603 44.6299C18.9393 45.1751 19.1956 45.6553 19.5293 46.0703C19.8711 46.4854 20.2821 46.8109 20.7622 47.0469C21.2505 47.2829 21.8039 47.4009 22.4224 47.4009C23.2199 47.4009 23.8953 47.2381 24.4487 46.9126C25.0021 46.5871 25.4863 46.1517 25.9014 45.6064L27.2686 46.6929C26.9837 47.1242 26.6216 47.5352 26.1821 47.9258C25.7427 48.3164 25.2015 48.6338 24.5586 48.8779C23.9238 49.1221 23.1711 49.2441 22.3003 49.2441ZM35.5571 49.2441C34.6375 49.2441 33.8034 49.0895 33.0547 48.7803C32.3141 48.4629 31.6753 48.0194 31.1382 47.4497C30.6092 46.88 30.2023 46.2046 29.9175 45.4233C29.6327 44.6421 29.4902 43.7876 29.4902 42.8599V42.3472C29.4902 41.2729 29.6489 40.3167 29.9663 39.4785C30.2837 38.6322 30.715 37.916 31.2603 37.3301C31.8055 36.7441 32.424 36.3006 33.1157 35.9995C33.8075 35.6984 34.5236 35.5479 35.2642 35.5479C36.2082 35.5479 37.022 35.7106 37.7056 36.0361C38.3973 36.3617 38.9629 36.8174 39.4023 37.4033C39.8418 37.9811 40.1673 38.6647 40.3789 39.4541C40.5905 40.2354 40.6963 41.0898 40.6963 42.0176V43.0308H30.833V41.1875H38.438V41.0166C38.4054 40.4307 38.2834 39.861 38.0718 39.3076C37.8683 38.7542 37.5428 38.2985 37.0952 37.9404C36.6476 37.5824 36.0373 37.4033 35.2642 37.4033C34.7515 37.4033 34.2795 37.5132 33.8481 37.7329C33.4168 37.9445 33.0466 38.2619 32.7373 38.6851C32.4281 39.1082 32.188 39.625 32.0171 40.2354C31.8462 40.8457 31.7607 41.5496 31.7607 42.3472V42.8599C31.7607 43.4865 31.8462 44.0765 32.0171 44.6299C32.1961 45.1751 32.4525 45.6553 32.7861 46.0703C33.1279 46.4854 33.5389 46.8109 34.019 47.0469C34.5073 47.2829 35.0607 47.4009 35.6792 47.4009C36.4767 47.4009 37.1522 47.2381 37.7056 46.9126C38.259 46.5871 38.7432 46.1517 39.1582 45.6064L40.5254 46.6929C40.2406 47.1242 39.8784 47.5352 39.439 47.9258C38.9995 48.3164 38.4583 48.6338 37.8154 48.8779C37.1807 49.1221 36.4279 49.2441 35.5571 49.2441ZM57.8594 46.4365V30.25H60.1299V49H58.0547L57.8594 46.4365ZM48.9727 42.5425V42.2861C48.9727 41.277 49.0947 40.3615 49.3389 39.5396C49.5911 38.7095 49.9451 37.9974 50.4009 37.4033C50.8647 36.8092 51.4141 36.3535 52.0488 36.0361C52.6917 35.7106 53.4079 35.5479 54.1973 35.5479C55.0273 35.5479 55.7516 35.6943 56.3701 35.9873C56.9967 36.2721 57.5257 36.6912 57.957 37.2446C58.3965 37.7899 58.7424 38.4491 58.9946 39.2222C59.2469 39.9953 59.4219 40.8701 59.5195 41.8467V42.9697C59.43 43.9382 59.255 44.8089 58.9946 45.582C58.7424 46.3551 58.3965 47.0143 57.957 47.5596C57.5257 48.1048 56.9967 48.5239 56.3701 48.8169C55.7435 49.1017 55.0111 49.2441 54.1729 49.2441C53.3997 49.2441 52.6917 49.0773 52.0488 48.7437C51.4141 48.41 50.8647 47.9421 50.4009 47.3398C49.9451 46.7376 49.5911 46.0296 49.3389 45.2158C49.0947 44.3939 48.9727 43.5028 48.9727 42.5425ZM51.2432 42.2861V42.5425C51.2432 43.2017 51.3083 43.8201 51.4385 44.3979C51.5768 44.9757 51.7884 45.4844 52.0732 45.9238C52.3581 46.3633 52.7202 46.7091 53.1597 46.9614C53.5991 47.2056 54.124 47.3276 54.7344 47.3276C55.4831 47.3276 56.0975 47.1689 56.5776 46.8516C57.0659 46.5342 57.4565 46.1151 57.7495 45.5942C58.0425 45.0734 58.2703 44.5078 58.4331 43.8975V40.9556C58.3354 40.508 58.193 40.0767 58.0059 39.6616C57.8268 39.2384 57.5908 38.8641 57.2979 38.5386C57.013 38.2049 56.659 37.9404 56.2358 37.7451C55.8208 37.5498 55.3284 37.4521 54.7588 37.4521C54.1403 37.4521 53.6073 37.5824 53.1597 37.8428C52.7202 38.0951 52.3581 38.445 52.0732 38.8926C51.7884 39.332 51.5768 39.8447 51.4385 40.4307C51.3083 41.0085 51.2432 41.627 51.2432 42.2861ZM69.1265 49.2441C68.2069 49.2441 67.3727 49.0895 66.624 48.7803C65.8835 48.4629 65.2446 48.0194 64.7075 47.4497C64.1786 46.88 63.7716 46.2046 63.4868 45.4233C63.202 44.6421 63.0596 43.7876 63.0596 42.8599V42.3472C63.0596 41.2729 63.2183 40.3167 63.5356 39.4785C63.853 38.6322 64.2843 37.916 64.8296 37.3301C65.3748 36.7441 65.9933 36.3006 66.6851 35.9995C67.3768 35.6984 68.0929 35.5479 68.8335 35.5479C69.7775 35.5479 70.5913 35.7106 71.2749 36.0361C71.9666 36.3617 72.5322 36.8174 72.9717 37.4033C73.4111 37.9811 73.7367 38.6647 73.9482 39.4541C74.1598 40.2354 74.2656 41.0898 74.2656 42.0176V43.0308H64.4023V41.1875H72.0073V41.0166C71.9748 40.4307 71.8527 39.861 71.6411 39.3076C71.4377 38.7542 71.1121 38.2985 70.6646 37.9404C70.217 37.5824 69.6066 37.4033 68.8335 37.4033C68.3208 37.4033 67.8488 37.5132 67.4175 37.7329C66.9862 37.9445 66.6159 38.2619 66.3066 38.6851C65.9974 39.1082 65.7573 39.625 65.5864 40.2354C65.4155 40.8457 65.3301 41.5496 65.3301 42.3472V42.8599C65.3301 43.4865 65.4155 44.0765 65.5864 44.6299C65.7655 45.1751 66.0218 45.6553 66.3555 46.0703C66.6973 46.4854 67.1082 46.8109 67.5884 47.0469C68.0767 47.2829 68.63 47.4009 69.2485 47.4009C70.0461 47.4009 70.7215 47.2381 71.2749 46.9126C71.8283 46.5871 72.3125 46.1517 72.7275 45.6064L74.0947 46.6929C73.8099 47.1242 73.4478 47.5352 73.0083 47.9258C72.5688 48.3164 72.0277 48.6338 71.3848 48.8779C70.75 49.1221 69.9972 49.2441 69.1265 49.2441ZM84.5928 45.4966C84.5928 45.1711 84.5195 44.87 84.373 44.5933C84.2347 44.3084 83.9458 44.0521 83.5063 43.8242C83.075 43.5882 82.424 43.3848 81.5532 43.2139C80.8208 43.0592 80.1576 42.8761 79.5635 42.6646C78.9775 42.453 78.4771 42.1966 78.062 41.8955C77.6551 41.5944 77.3418 41.2404 77.1221 40.8335C76.9023 40.4266 76.7925 39.9505 76.7925 39.4053C76.7925 38.8844 76.9064 38.3921 77.1343 37.9282C77.3703 37.4644 77.6999 37.0534 78.123 36.6953C78.5544 36.3372 79.0711 36.0565 79.6733 35.853C80.2756 35.6496 80.9469 35.5479 81.6875 35.5479C82.7454 35.5479 83.6488 35.735 84.3975 36.1094C85.1462 36.4837 85.7199 36.9842 86.1187 37.6108C86.5174 38.2293 86.7168 38.917 86.7168 39.6738H84.4585C84.4585 39.3076 84.3486 38.9536 84.1289 38.6118C83.9173 38.2619 83.604 37.973 83.189 37.7451C82.7821 37.5173 82.2816 37.4033 81.6875 37.4033C81.0609 37.4033 80.5522 37.501 80.1616 37.6963C79.7791 37.8835 79.4984 38.1235 79.3193 38.4165C79.1484 38.7095 79.063 39.0187 79.063 39.3442C79.063 39.5884 79.1037 39.8081 79.1851 40.0034C79.2746 40.1906 79.4292 40.3656 79.6489 40.5283C79.8687 40.6829 80.1779 40.8294 80.5767 40.9678C80.9754 41.1061 81.484 41.2445 82.1025 41.3828C83.1849 41.627 84.076 41.9199 84.7759 42.2617C85.4757 42.6035 85.9966 43.0226 86.3384 43.519C86.6802 44.0155 86.8511 44.6177 86.8511 45.3257C86.8511 45.9035 86.729 46.4325 86.4849 46.9126C86.2489 47.3927 85.903 47.8078 85.4473 48.1577C84.9997 48.4995 84.4626 48.7681 83.8359 48.9634C83.2174 49.1506 82.5216 49.2441 81.7485 49.2441C80.5848 49.2441 79.6001 49.0366 78.7944 48.6216C77.9888 48.2065 77.3784 47.6694 76.9634 47.0103C76.5483 46.3511 76.3408 45.6553 76.3408 44.9229H78.6113C78.6439 45.5413 78.8229 46.0337 79.1484 46.3999C79.474 46.758 79.8727 47.0143 80.3447 47.1689C80.8167 47.3154 81.2847 47.3887 81.7485 47.3887C82.367 47.3887 82.8838 47.3073 83.2988 47.1445C83.722 46.9818 84.0435 46.758 84.2632 46.4731C84.4829 46.1883 84.5928 45.8628 84.5928 45.4966ZM92.271 35.792V49H90.0005V35.792H92.271ZM89.8296 32.2886C89.8296 31.9224 89.9395 31.6131 90.1592 31.3608C90.387 31.1086 90.7207 30.9824 91.1602 30.9824C91.5915 30.9824 91.9211 31.1086 92.1489 31.3608C92.3849 31.6131 92.5029 31.9224 92.5029 32.2886C92.5029 32.6385 92.3849 32.9396 92.1489 33.1919C91.9211 33.436 91.5915 33.5581 91.1602 33.5581C90.7207 33.5581 90.387 33.436 90.1592 33.1919C89.9395 32.9396 89.8296 32.6385 89.8296 32.2886ZM104.454 35.792H106.504V48.7192C106.504 49.883 106.268 50.8758 105.796 51.6978C105.324 52.5197 104.665 53.1423 103.819 53.5654C102.981 53.9967 102.012 54.2124 100.914 54.2124C100.458 54.2124 99.9207 54.1392 99.3022 53.9927C98.6919 53.8543 98.0897 53.6143 97.4956 53.2725C96.9097 52.9388 96.4173 52.4871 96.0186 51.9175L97.2026 50.5747C97.756 51.242 98.3338 51.7059 98.936 51.9663C99.5464 52.2267 100.149 52.3569 100.743 52.3569C101.459 52.3569 102.077 52.2227 102.598 51.9541C103.119 51.6855 103.522 51.2868 103.807 50.7578C104.1 50.237 104.246 49.5941 104.246 48.8291V38.6973L104.454 35.792ZM95.3594 42.5425V42.2861C95.3594 41.277 95.4774 40.3615 95.7134 39.5396C95.9575 38.7095 96.3034 37.9974 96.751 37.4033C97.2067 36.8092 97.756 36.3535 98.3989 36.0361C99.0418 35.7106 99.7661 35.5479 100.572 35.5479C101.402 35.5479 102.126 35.6943 102.745 35.9873C103.371 36.2721 103.9 36.6912 104.332 37.2446C104.771 37.7899 105.117 38.4491 105.369 39.2222C105.621 39.9953 105.796 40.8701 105.894 41.8467V42.9697C105.805 43.9382 105.63 44.8089 105.369 45.582C105.117 46.3551 104.771 47.0143 104.332 47.5596C103.9 48.1048 103.371 48.5239 102.745 48.8169C102.118 49.1017 101.386 49.2441 100.547 49.2441C99.758 49.2441 99.0418 49.0773 98.3989 48.7437C97.7642 48.41 97.2189 47.9421 96.7632 47.3398C96.3075 46.7376 95.9575 46.0296 95.7134 45.2158C95.4774 44.3939 95.3594 43.5028 95.3594 42.5425ZM97.6177 42.2861V42.5425C97.6177 43.2017 97.6828 43.8201 97.813 44.3979C97.9513 44.9757 98.1589 45.4844 98.4355 45.9238C98.7204 46.3633 99.0825 46.7091 99.522 46.9614C99.9614 47.2056 100.486 47.3276 101.097 47.3276C101.845 47.3276 102.464 47.1689 102.952 46.8516C103.44 46.5342 103.827 46.1151 104.112 45.5942C104.405 45.0734 104.633 44.5078 104.795 43.8975V40.9556C104.706 40.508 104.568 40.0767 104.38 39.6616C104.201 39.2384 103.965 38.8641 103.672 38.5386C103.388 38.2049 103.034 37.9404 102.61 37.7451C102.187 37.5498 101.691 37.4521 101.121 37.4521C100.503 37.4521 99.9696 37.5824 99.522 37.8428C99.0825 38.0951 98.7204 38.445 98.4355 38.8926C98.1589 39.332 97.9513 39.8447 97.813 40.4307C97.6828 41.0085 97.6177 41.627 97.6177 42.2861ZM112.193 38.6118V49H109.935V35.792H112.071L112.193 38.6118ZM111.656 41.8955L110.716 41.8589C110.724 40.9556 110.858 40.1214 111.119 39.3564C111.379 38.5833 111.745 37.9119 112.217 37.3423C112.689 36.7726 113.251 36.3332 113.902 36.0239C114.561 35.7065 115.289 35.5479 116.087 35.5479C116.738 35.5479 117.324 35.6374 117.845 35.8164C118.366 35.9873 118.809 36.264 119.175 36.6465C119.55 37.029 119.834 37.5254 120.03 38.1357C120.225 38.738 120.323 39.4744 120.323 40.3452V49H118.052V40.3208C118.052 39.6291 117.951 39.0757 117.747 38.6606C117.544 38.2375 117.247 37.9323 116.856 37.7451C116.465 37.5498 115.985 37.4521 115.416 37.4521C114.854 37.4521 114.341 37.5701 113.877 37.8062C113.422 38.0422 113.027 38.3677 112.693 38.7827C112.368 39.1978 112.111 39.6738 111.924 40.2109C111.745 40.7399 111.656 41.3014 111.656 41.8955ZM138.511 35.792H140.562V48.7192C140.562 49.883 140.326 50.8758 139.854 51.6978C139.382 52.5197 138.723 53.1423 137.876 53.5654C137.038 53.9967 136.07 54.2124 134.971 54.2124C134.515 54.2124 133.978 54.1392 133.36 53.9927C132.75 53.8543 132.147 53.6143 131.553 53.2725C130.967 52.9388 130.475 52.4871 130.076 51.9175L131.26 50.5747C131.814 51.242 132.391 51.7059 132.994 51.9663C133.604 52.2267 134.206 52.3569 134.8 52.3569C135.516 52.3569 136.135 52.2227 136.656 51.9541C137.177 51.6855 137.579 51.2868 137.864 50.7578C138.157 50.237 138.304 49.5941 138.304 48.8291V38.6973L138.511 35.792ZM129.417 42.5425V42.2861C129.417 41.277 129.535 40.3615 129.771 39.5396C130.015 38.7095 130.361 37.9974 130.809 37.4033C131.264 36.8092 131.814 36.3535 132.457 36.0361C133.099 35.7106 133.824 35.5479 134.629 35.5479C135.459 35.5479 136.184 35.6943 136.802 35.9873C137.429 36.2721 137.958 36.6912 138.389 37.2446C138.829 37.7899 139.174 38.4491 139.427 39.2222C139.679 39.9953 139.854 40.8701 139.952 41.8467V42.9697C139.862 43.9382 139.687 44.8089 139.427 45.582C139.174 46.3551 138.829 47.0143 138.389 47.5596C137.958 48.1048 137.429 48.5239 136.802 48.8169C136.176 49.1017 135.443 49.2441 134.605 49.2441C133.816 49.2441 133.099 49.0773 132.457 48.7437C131.822 48.41 131.277 47.9421 130.821 47.3398C130.365 46.7376 130.015 46.0296 129.771 45.2158C129.535 44.3939 129.417 43.5028 129.417 42.5425ZM131.675 42.2861V42.5425C131.675 43.2017 131.74 43.8201 131.871 44.3979C132.009 44.9757 132.216 45.4844 132.493 45.9238C132.778 46.3633 133.14 46.7091 133.58 46.9614C134.019 47.2056 134.544 47.3276 135.154 47.3276C135.903 47.3276 136.521 47.1689 137.01 46.8516C137.498 46.5342 137.885 46.1151 138.169 45.5942C138.462 45.0734 138.69 44.5078 138.853 43.8975V40.9556C138.764 40.508 138.625 40.0767 138.438 39.6616C138.259 39.2384 138.023 38.8641 137.73 38.5386C137.445 38.2049 137.091 37.9404 136.668 37.7451C136.245 37.5498 135.748 37.4521 135.179 37.4521C134.56 37.4521 134.027 37.5824 133.58 37.8428C133.14 38.0951 132.778 38.445 132.493 38.8926C132.216 39.332 132.009 39.8447 131.871 40.4307C131.74 41.0085 131.675 41.627 131.675 42.2861ZM152.073 45.9482V35.792H154.344V49H152.183L152.073 45.9482ZM152.5 43.165L153.44 43.1406C153.44 44.0195 153.347 44.8333 153.16 45.582C152.981 46.3226 152.688 46.9655 152.281 47.5107C151.874 48.056 151.341 48.4832 150.682 48.7925C150.022 49.0936 149.221 49.2441 148.277 49.2441C147.634 49.2441 147.044 49.1506 146.507 48.9634C145.978 48.7762 145.522 48.4873 145.14 48.0967C144.757 47.7061 144.46 47.1974 144.249 46.5708C144.045 45.9442 143.943 45.1914 143.943 44.3125V35.792H146.202V44.3369C146.202 44.931 146.267 45.4233 146.397 45.814C146.535 46.1965 146.718 46.5016 146.946 46.7295C147.182 46.9492 147.443 47.1038 147.728 47.1934C148.021 47.2829 148.322 47.3276 148.631 47.3276C149.591 47.3276 150.352 47.1445 150.914 46.7783C151.475 46.404 151.878 45.9035 152.122 45.2769C152.374 44.6421 152.5 43.9382 152.5 43.165ZM160.24 35.792V49H157.969V35.792H160.24ZM157.798 32.2886C157.798 31.9224 157.908 31.6131 158.128 31.3608C158.356 31.1086 158.689 30.9824 159.129 30.9824C159.56 30.9824 159.89 31.1086 160.118 31.3608C160.354 31.6131 160.472 31.9224 160.472 32.2886C160.472 32.6385 160.354 32.9396 160.118 33.1919C159.89 33.436 159.56 33.5581 159.129 33.5581C158.689 33.5581 158.356 33.436 158.128 33.1919C157.908 32.9396 157.798 32.6385 157.798 32.2886ZM172.19 46.4365V30.25H174.461V49H172.386L172.19 46.4365ZM163.304 42.5425V42.2861C163.304 41.277 163.426 40.3615 163.67 39.5396C163.922 38.7095 164.276 37.9974 164.732 37.4033C165.196 36.8092 165.745 36.3535 166.38 36.0361C167.023 35.7106 167.739 35.5479 168.528 35.5479C169.358 35.5479 170.083 35.6943 170.701 35.9873C171.328 36.2721 171.857 36.6912 172.288 37.2446C172.728 37.7899 173.073 38.4491 173.326 39.2222C173.578 39.9953 173.753 40.8701 173.851 41.8467V42.9697C173.761 43.9382 173.586 44.8089 173.326 45.582C173.073 46.3551 172.728 47.0143 172.288 47.5596C171.857 48.1048 171.328 48.5239 170.701 48.8169C170.075 49.1017 169.342 49.2441 168.504 49.2441C167.731 49.2441 167.023 49.0773 166.38 48.7437C165.745 48.41 165.196 47.9421 164.732 47.3398C164.276 46.7376 163.922 46.0296 163.67 45.2158C163.426 44.3939 163.304 43.5028 163.304 42.5425ZM165.574 42.2861V42.5425C165.574 43.2017 165.639 43.8201 165.77 44.3979C165.908 44.9757 166.119 45.4844 166.404 45.9238C166.689 46.3633 167.051 46.7091 167.491 46.9614C167.93 47.2056 168.455 47.3276 169.065 47.3276C169.814 47.3276 170.429 47.1689 170.909 46.8516C171.397 46.5342 171.788 46.1151 172.081 45.5942C172.374 45.0734 172.601 44.5078 172.764 43.8975V40.9556C172.667 40.508 172.524 40.0767 172.337 39.6616C172.158 39.2384 171.922 38.8641 171.629 38.5386C171.344 38.2049 170.99 37.9404 170.567 37.7451C170.152 37.5498 169.66 37.4521 169.09 37.4521C168.471 37.4521 167.938 37.5824 167.491 37.8428C167.051 38.0951 166.689 38.445 166.404 38.8926C166.119 39.332 165.908 39.8447 165.77 40.4307C165.639 41.0085 165.574 41.627 165.574 42.2861ZM183.458 49.2441C182.538 49.2441 181.704 49.0895 180.955 48.7803C180.215 48.4629 179.576 48.0194 179.039 47.4497C178.51 46.88 178.103 46.2046 177.818 45.4233C177.533 44.6421 177.391 43.7876 177.391 42.8599V42.3472C177.391 41.2729 177.549 40.3167 177.867 39.4785C178.184 38.6322 178.615 37.916 179.161 37.3301C179.706 36.7441 180.324 36.3006 181.016 35.9995C181.708 35.6984 182.424 35.5479 183.165 35.5479C184.109 35.5479 184.922 35.7106 185.606 36.0361C186.298 36.3617 186.863 36.8174 187.303 37.4033C187.742 37.9811 188.068 38.6647 188.279 39.4541C188.491 40.2354 188.597 41.0898 188.597 42.0176V43.0308H178.733V41.1875H186.338V41.0166C186.306 40.4307 186.184 39.861 185.972 39.3076C185.769 38.7542 185.443 38.2985 184.996 37.9404C184.548 37.5824 183.938 37.4033 183.165 37.4033C182.652 37.4033 182.18 37.5132 181.749 37.7329C181.317 37.9445 180.947 38.2619 180.638 38.6851C180.328 39.1082 180.088 39.625 179.917 40.2354C179.747 40.8457 179.661 41.5496 179.661 42.3472V42.8599C179.661 43.4865 179.747 44.0765 179.917 44.6299C180.097 45.1751 180.353 45.6553 180.687 46.0703C181.028 46.4854 181.439 46.8109 181.919 47.0469C182.408 47.2829 182.961 47.4009 183.58 47.4009C184.377 47.4009 185.053 47.2381 185.606 46.9126C186.159 46.5871 186.644 46.1517 187.059 45.6064L188.426 46.6929C188.141 47.1242 187.779 47.5352 187.339 47.9258C186.9 48.3164 186.359 48.6338 185.716 48.8779C185.081 49.1221 184.328 49.2441 183.458 49.2441ZM193.687 30.25V49H191.417V30.25H193.687ZM199.766 35.792V49H197.496V35.792H199.766ZM197.325 32.2886C197.325 31.9224 197.435 31.6131 197.654 31.3608C197.882 31.1086 198.216 30.9824 198.655 30.9824C199.087 30.9824 199.416 31.1086 199.644 31.3608C199.88 31.6131 199.998 31.9224 199.998 32.2886C199.998 32.6385 199.88 32.9396 199.644 33.1919C199.416 33.436 199.087 33.5581 198.655 33.5581C198.216 33.5581 197.882 33.436 197.654 33.1919C197.435 32.9396 197.325 32.6385 197.325 32.2886ZM205.65 38.6118V49H203.392V35.792H205.528L205.65 38.6118ZM205.113 41.8955L204.173 41.8589C204.181 40.9556 204.315 40.1214 204.576 39.3564C204.836 38.5833 205.202 37.9119 205.674 37.3423C206.146 36.7726 206.708 36.3332 207.359 36.0239C208.018 35.7065 208.746 35.5479 209.544 35.5479C210.195 35.5479 210.781 35.6374 211.302 35.8164C211.823 35.9873 212.266 36.264 212.632 36.6465C213.007 37.029 213.292 37.5254 213.487 38.1357C213.682 38.738 213.78 39.4744 213.78 40.3452V49H211.509V40.3208C211.509 39.6291 211.408 39.0757 211.204 38.6606C211.001 38.2375 210.704 37.9323 210.313 37.7451C209.922 37.5498 209.442 37.4521 208.873 37.4521C208.311 37.4521 207.798 37.5701 207.334 37.8062C206.879 38.0422 206.484 38.3677 206.15 38.7827C205.825 39.1978 205.569 39.6738 205.381 40.2109C205.202 40.7399 205.113 41.3014 205.113 41.8955ZM222.691 49.2441C221.771 49.2441 220.937 49.0895 220.188 48.7803C219.448 48.4629 218.809 48.0194 218.272 47.4497C217.743 46.88 217.336 46.2046 217.051 45.4233C216.766 44.6421 216.624 43.7876 216.624 42.8599V42.3472C216.624 41.2729 216.783 40.3167 217.1 39.4785C217.417 38.6322 217.849 37.916 218.394 37.3301C218.939 36.7441 219.558 36.3006 220.25 35.9995C220.941 35.6984 221.657 35.5479 222.398 35.5479C223.342 35.5479 224.156 35.7106 224.839 36.0361C225.531 36.3617 226.097 36.8174 226.536 37.4033C226.976 37.9811 227.301 38.6647 227.513 39.4541C227.724 40.2354 227.83 41.0898 227.83 42.0176V43.0308H217.967V41.1875H225.572V41.0166C225.539 40.4307 225.417 39.861 225.206 39.3076C225.002 38.7542 224.677 38.2985 224.229 37.9404C223.781 37.5824 223.171 37.4033 222.398 37.4033C221.885 37.4033 221.413 37.5132 220.982 37.7329C220.551 37.9445 220.18 38.2619 219.871 38.6851C219.562 39.1082 219.322 39.625 219.151 40.2354C218.98 40.8457 218.895 41.5496 218.895 42.3472V42.8599C218.895 43.4865 218.98 44.0765 219.151 44.6299C219.33 45.1751 219.586 45.6553 219.92 46.0703C220.262 46.4854 220.673 46.8109 221.153 47.0469C221.641 47.2829 222.195 47.4009 222.813 47.4009C223.611 47.4009 224.286 47.2381 224.839 46.9126C225.393 46.5871 225.877 46.1517 226.292 45.6064L227.659 46.6929C227.374 47.1242 227.012 47.5352 226.573 47.9258C226.133 48.3164 225.592 48.6338 224.949 48.8779C224.314 49.1221 223.562 49.2441 222.691 49.2441Z" fill="#F1DEDC" fill-opacity="0.63"/>
<path d="M0.254395 51.4414H228.746V52.6621H0.254395V51.4414Z" fill="#F1DEDC" fill-opacity="0.63"/>
</svg>
